<svg width="128" height="128" viewBox="0 0 128 128" fill="none" xmlns="http://www.w3.org/2000/svg">
<path d="M17.2882 44.9908C16.9365 43.9437 17.5003 42.8098 18.5474 42.4581L61.66 27.9784C62.7071 27.6267 63.841 28.1904 64.1927 29.2375L83.0833 85.4834C83.435 86.5304 82.8712 87.6644 81.8241 88.016L38.7116 102.496C37.6645 102.847 36.5305 102.284 36.1789 101.237L17.2882 44.9908Z" fill="#361E83"/>
<path d="M12.3407 42.5168C11.989 41.4697 12.5527 40.3358 13.5998 39.9841L56.7124 25.5044C57.7595 25.1527 58.8934 25.7164 59.2451 26.7635L78.1358 83.0094C78.4874 84.0564 77.9237 85.1904 76.8766 85.542L33.764 100.022C32.7169 100.373 31.583 99.8097 31.2313 98.7626L12.3407 42.5168Z" fill="#BFADF9"/>
<path fill-rule="evenodd" clip-rule="evenodd" d="M12.963 38.0882L56.0756 23.6084C58.1697 22.9051 60.4376 24.0326 61.1409 26.1268L80.0316 82.3726C80.7349 84.4668 79.6074 86.7346 77.5133 87.438L34.4007 101.918C32.3065 102.621 30.0386 101.494 29.3353 99.3994L10.4446 43.1535C9.74126 41.0594 10.8688 38.7915 12.963 38.0882ZM13.5997 39.9841C12.5526 40.3358 11.9889 41.4697 12.3406 42.5168L31.2312 98.7626C31.5829 99.8097 32.7168 100.373 33.7639 100.022L76.8765 85.5421C77.9236 85.1904 78.4873 84.0565 78.1357 83.0094L59.245 26.7635C58.8933 25.7164 57.7594 25.1527 56.7123 25.5044L13.5997 39.9841Z" fill="#361E83"/>
<path fill-rule="evenodd" clip-rule="evenodd" d="M25.251 50.6854C25.0752 50.1618 25.3571 49.5949 25.8806 49.419L51.5608 40.7941C52.0843 40.6183 52.6513 40.9002 52.8271 41.4237C53.003 41.9473 52.7211 42.5142 52.1975 42.6901L26.5174 51.315C25.9938 51.4908 25.4269 51.2089 25.251 50.6854Z" fill="#361E83"/>
<path fill-rule="evenodd" clip-rule="evenodd" d="M27.2986 56.783C27.1228 56.2595 27.4047 55.6925 27.9282 55.5167L53.6084 46.8918C54.1319 46.7159 54.6989 46.9978 54.8747 47.5214C55.0506 48.0449 54.7687 48.6119 54.2452 48.7877L28.565 57.4126C28.0414 57.5885 27.4745 57.3066 27.2986 56.783Z" fill="#361E83"/>
<path fill-rule="evenodd" clip-rule="evenodd" d="M29.3473 62.8808C29.1714 62.3573 29.4533 61.7903 29.9769 61.6145L55.657 52.9896C56.1806 52.8137 56.7475 53.0956 56.9234 53.6191C57.0992 54.1427 56.8173 54.7097 56.2938 54.8855L30.6136 63.5104C30.0901 63.6862 29.5231 63.4044 29.3473 62.8808Z" fill="#361E83"/>
<path fill-rule="evenodd" clip-rule="evenodd" d="M31.3948 68.9784C31.219 68.4548 31.5008 67.8878 32.0244 67.712L57.7046 59.0871C58.2281 58.9113 58.7951 59.1931 58.9709 59.7167C59.1467 60.2402 58.8649 60.8072 58.3413 60.983L32.6611 69.6079C32.1376 69.7838 31.5706 69.5019 31.3948 68.9784Z" fill="#361E83"/>
<path fill-rule="evenodd" clip-rule="evenodd" d="M33.4427 75.0758C33.2669 74.5522 33.5487 73.9853 34.0723 73.8094L59.7525 65.1845C60.276 65.0087 60.843 65.2905 61.0188 65.8141C61.1947 66.3376 60.9128 66.9046 60.3892 67.0804L34.7091 75.7053C34.1855 75.8812 33.6186 75.5993 33.4427 75.0758Z" fill="#361E83"/>
<path fill-rule="evenodd" clip-rule="evenodd" d="M47.7538 77.0463C47.93 77.5698 47.6485 78.1369 47.1251 78.3131L36.7573 81.8028C36.2339 81.9789 35.6667 81.6974 35.4905 81.174C35.3144 80.6506 35.5959 80.0834 36.1193 79.9073L46.4871 76.4176C47.0105 76.2414 47.5776 76.5229 47.7538 77.0463Z" fill="#361E83"/>
<path d="M68.0382 29.211C68.3292 28.1454 69.4289 27.5175 70.4945 27.8085L114.367 39.7904C115.432 40.0814 116.06 41.1811 115.769 42.2466L100.137 99.4838C99.8466 100.549 98.7468 101.177 97.6813 100.886L53.8088 88.9044C52.7433 88.6134 52.1154 87.5137 52.4064 86.4482L68.0382 29.211Z" fill="#BFADF9"/>
<path fill-rule="evenodd" clip-rule="evenodd" d="M71.0213 25.8791L114.894 37.861C117.025 38.443 118.281 40.6424 117.699 42.7735L102.067 100.011C101.485 102.142 99.2854 103.398 97.1543 102.816L53.2818 90.8337C51.1507 90.2517 49.895 88.0523 50.477 85.9212L66.1088 28.684C66.6908 26.5529 68.8902 25.2971 71.0213 25.8791ZM70.4944 27.8085C69.4289 27.5175 68.3291 28.1454 68.0381 29.2109L52.4063 86.4481C52.1153 87.5137 52.7432 88.6134 53.8087 88.9044L97.6812 100.886C98.7468 101.177 99.8465 100.549 100.137 99.4838L115.769 42.2466C116.06 41.181 115.432 40.0813 114.367 39.7903L70.4944 27.8085Z" fill="#361E83"/>
<path fill-rule="evenodd" clip-rule="evenodd" d="M89.4383 79.1384C89.8246 79.2478 90.1081 79.5775 90.1582 79.9759L91.3932 89.797C91.4621 90.345 91.0738 90.8451 90.5258 90.914C89.9778 90.9829 89.4777 90.5945 89.4088 90.0465L88.4682 82.5662L83.6981 88.5045C83.3522 88.9351 82.7228 89.0037 82.2922 88.6579C81.8616 88.312 81.793 87.6826 82.1388 87.252L88.3864 79.4744C88.6378 79.1614 89.052 79.0291 89.4383 79.1384Z" fill="#361E83"/>
<path fill-rule="evenodd" clip-rule="evenodd" d="M84.7377 84.4063C84.8833 83.8735 85.4331 83.5596 85.9659 83.7051L90.1388 84.8448C90.6716 84.9903 90.9856 85.5401 90.8401 86.0729C90.6946 86.6057 90.1447 86.9196 89.6119 86.7741L85.439 85.6344C84.9062 85.4889 84.5922 84.9391 84.7377 84.4063Z" fill="#361E83"/>
<path fill-rule="evenodd" clip-rule="evenodd" d="M95.4352 84.5131C95.968 84.6586 96.282 85.2084 96.1365 85.7412L95.3505 88.6191C95.205 89.1519 94.6551 89.4658 94.1223 89.3203C93.5896 89.1748 93.2756 88.625 93.4211 88.0922L94.2071 85.2143C94.3526 84.6815 94.9025 84.3676 95.4352 84.5131Z" fill="#361E83"/>
<path fill-rule="evenodd" clip-rule="evenodd" d="M97.1821 87.5727C97.0366 88.1055 96.4868 88.4194 95.954 88.2739L93.0761 87.488C92.5433 87.3425 92.2294 86.7926 92.3749 86.2598C92.5204 85.7271 93.0703 85.4131 93.603 85.5586L96.4809 86.3446C97.0137 86.4901 97.3276 87.04 97.1821 87.5727Z" fill="#361E83"/>
<path d="M97.1819 61.0541C98.0537 60.5564 98.3569 59.4462 97.8591 58.5744C97.3614 57.7026 96.2512 57.3994 95.3794 57.8972L84.6952 63.9974C83.736 64.5451 82.5144 64.2115 81.9667 63.2523L78.547 57.2629C78.0493 56.3911 76.9391 56.0879 76.0673 56.5857C75.1956 57.0834 74.8924 58.1936 75.3901 59.0654L79.8002 66.7894C79.8009 66.7906 79.8005 66.7921 79.7993 66.7928C79.7981 66.7935 79.7977 66.795 79.7984 66.7962L81.5984 69.9488C81.5991 69.95 81.6006 69.9504 81.6018 69.9497C81.603 69.9491 81.6045 69.9495 81.6052 69.9506C81.6058 69.9518 81.6073 69.9522 81.6085 69.9515L84.7612 68.1514C84.7623 68.1508 84.7627 68.1493 84.7621 68.1481C84.7614 68.147 84.7618 68.1455 84.763 68.1448L97.1819 61.0541Z" fill="#BFADF9"/>
<path fill-rule="evenodd" clip-rule="evenodd" d="M83.7037 62.2606L94.3879 56.1603C96.2189 55.1149 98.5507 55.7517 99.5961 57.5827C100.642 59.4137 100.005 61.7455 98.1737 62.7909L85.8726 69.8144C85.8339 69.8402 85.794 69.8648 85.753 69.8883L82.6002 71.6883C82.1237 71.9604 81.5825 72.0153 81.0912 71.8841C80.5895 71.7521 80.1392 71.4264 79.8617 70.9405L78.0617 67.7878C78.038 67.7464 78.016 67.7044 77.9955 67.662L73.6534 60.057C72.608 58.226 73.2448 55.8942 75.0758 54.8488C76.9068 53.8034 79.2386 54.4402 80.284 56.2712L83.7037 62.2606ZM97.8592 58.5744C98.357 59.4461 98.0538 60.5563 97.182 61.0541L84.7631 68.1448C84.7619 68.1455 84.7615 68.147 84.7622 68.1481C84.7624 68.1485 84.7625 68.149 84.7625 68.1495C84.7625 68.1502 84.762 68.151 84.7613 68.1514L81.6086 69.9515C81.6074 69.9522 81.6059 69.9518 81.6053 69.9506C81.6046 69.9494 81.6031 69.949 81.602 69.9497H81.6019C81.6007 69.9504 81.5992 69.95 81.5985 69.9488L79.7985 66.7962C79.7978 66.795 79.7982 66.7935 79.7994 66.7928C79.8006 66.7921 79.801 66.7906 79.8003 66.7894L75.3902 59.0654C74.8925 58.1936 75.1957 57.0834 76.0674 56.5856C76.9392 56.0879 78.0494 56.3911 78.5471 57.2629L81.9668 63.2522C82.5145 64.2115 83.7361 64.5451 84.6953 63.9974L95.3795 57.8972C96.2513 57.3994 97.3615 57.7026 97.8592 58.5744Z" fill="#361E83"/>
</svg>
