<svg width="44" height="44" viewBox="0 0 44 44" fill="none" xmlns="http://www.w3.org/2000/svg">
<path d="M22.0001 39.732L29.0896 17.9149H14.9106L22.0001 39.732Z" fill="#E24329"/>
<path d="M22 39.732L14.9104 17.9149H4.97607L22 39.732Z" fill="#FC6D26"/>
<path d="M4.97635 17.9149L2.82172 24.5452C2.72602 24.8399 2.72609 25.1574 2.82193 25.452C2.91777 25.7467 3.10446 26.0035 3.35522 26.1855L22.0002 39.7375L4.97635 17.9149Z" fill="#FCA326"/>
<path d="M4.97607 17.9149H14.9104L10.6411 4.77535C10.5929 4.62825 10.4995 4.50013 10.3742 4.40929C10.2489 4.31845 10.098 4.26953 9.94326 4.26953C9.78848 4.26953 9.63766 4.31845 9.51233 4.40929C9.38701 4.50013 9.2936 4.62825 9.24545 4.77535L4.97607 17.9149Z" fill="#E24329"/>
<path d="M22 39.732L29.0895 17.9149H39.0239L22 39.732Z" fill="#FC6D26"/>
<path d="M39.0239 17.9149L41.1785 24.5452C41.2742 24.8399 41.2741 25.1574 41.1783 25.452C41.0825 25.7467 40.8958 26.0035 40.645 26.1855L22 39.7375L39.0239 17.9149Z" fill="#FCA326"/>
<path d="M39.0237 17.9149H29.0894L33.3587 4.77401C33.4069 4.62691 33.5003 4.49878 33.6256 4.40794C33.7509 4.3171 33.9018 4.26819 34.0565 4.26819C34.2113 4.26819 34.3621 4.3171 34.4875 4.40794C34.6128 4.49878 34.7062 4.62691 34.7544 4.77401L39.0237 17.9149Z" fill="#E24329"/>
</svg>
